<svg xmlns="http://www.w3.org/2000/svg" xmlns:xlink="http://www.w3.org/1999/xlink" width="92" height="92" viewBox="0 0 92 92">
  <defs>
    <clipPath id="clip-path">
      <rect id="Rectángulo_271" data-name="Rectángulo 271" width="92" height="92" fill="#030303"/>
    </clipPath>
  </defs>
  <g id="Grupo_470" data-name="Grupo 470" transform="translate(265 -448)">
    <g id="Grupo_469" data-name="Grupo 469" transform="translate(-265 448)">
      <g id="Grupo_468" data-name="Grupo 468" transform="translate(0 0)" clip-path="url(#clip-path)">
        <path id="Trazado_1003" data-name="Trazado 1003" d="M-180.3,455.752a26.54,26.54,0,0,0-37.49,0,26.223,26.223,0,0,0-7.594,15.739,26.686,26.686,0,0,0,2.642,14.9l-41.395,41.395,11.8,11.8,4.808-4.807,5.22,5.22,11.2-11.2-5.221-5.221,3.842-3.842,5.22,5.221,11.2-11.2-5.221-5.221,10.338-10.338a26.7,26.7,0,0,0,14.9,2.643,26.226,26.226,0,0,0,15.738-7.594,26.539,26.539,0,0,0,0-37.49Zm-3.813,33.677a21.056,21.056,0,0,1-25.9,3.121l-1.809-1.1L-228.9,508.53l5.22,5.221-3.579,3.579-5.22-5.221-11.466,11.466,5.22,5.221-3.579,3.579-5.22-5.221-4.808,4.808-4.179-4.18L-216,487.27l-1.1-1.81a21.054,21.054,0,0,1,3.12-25.9,21.142,21.142,0,0,1,29.866,0,21.141,21.141,0,0,1,0,29.865Zm0,0" transform="translate(264.347 -448)" fill="#030303"/>
      </g>
    </g>
    <path id="Trazado_1004" data-name="Trazado 1004" d="M-5.341,502.96a8.842,8.842,0,0,0,0,12.489A8.806,8.806,0,0,0,.9,518.031a8.806,8.806,0,0,0,6.245-2.582,8.842,8.842,0,0,0,0-12.489,8.842,8.842,0,0,0-12.489,0Zm8.677,8.677a3.438,3.438,0,1,1,0-4.864,3.442,3.442,0,0,1,0,4.864Zm0,0" transform="translate(-195.485 -39.829)" fill="#030303"/>
  </g>
</svg>
