<svg xmlns="http://www.w3.org/2000/svg" xmlns:xlink="http://www.w3.org/1999/xlink" width="729" height="290" viewBox="0 0 729 290">
  <defs>
    <clipPath id="clip-path">
      <rect id="Rectángulo_3977" data-name="Rectángulo 3977" width="706.871" height="225.614" fill="none"/>
    </clipPath>
    <clipPath id="clip-Emplooy-naranja">
      <rect width="729" height="290"/>
    </clipPath>
  </defs>
  <g id="Emplooy-naranja" clip-path="url(#clip-Emplooy-naranja)">
    <g id="Grupo_11051" data-name="Grupo 11051" transform="translate(11.065 32.193)">
      <g id="Grupo_11049" data-name="Grupo 11049" clip-path="url(#clip-path)">
        <path id="Trazado_12023" data-name="Trazado 12023" d="M129.367,95.569C149.8,80.6,172.326,85.355,181.9,100.277c7.671-7.671,16.684-12.44,27.626-13.623,23.784-2.573,38.965,12.827,35.085,36.468-2.737,16.652-6.318,33.167-9.363,49.769-.536,2.925-2,3.542-4.632,3.5-7.7-.113-15.41-.171-23.109.021-3.422.086-4.056-.91-3.345-4.228,2.834-13.2,5.378-26.473,8-39.723a37.833,37.833,0,0,0,.714-5.007c.326-5.345.592-10.734-5.389-13.568-5.109-2.421-12.807-.842-17.229,3.527-4.061,4-5.762,9.165-6.866,14.553-2.668,13.043-5.4,26.077-7.812,39.169-.748,4.061-2.349,5.557-6.6,5.319-6.93-.388-13.906-.32-20.846-.024-4.078.174-4.692-1.336-3.928-4.906,2.828-13.207,5.474-26.454,8.177-39.687a35,35,0,0,0,.655-3.881c.706-8-1.2-12.493-6.029-14.376-5.8-2.256-13.679-.055-17.872,5.121a28.816,28.816,0,0,0-5.57,12.775c-2.7,13.425-5.434,26.843-7.965,40.3-.619,3.289-1.754,4.814-5.435,4.663-7.315-.3-14.656-.226-21.977-.027-3.395.094-4.708-.553-3.933-4.361q8.129-39.975,15.907-80.022c.63-3.225,2.1-4.242,5.334-4.1,5.812.262,11.645.073,17.469.073,7.261,0,7.261,0,6.4,7.558" transform="translate(10.769 11.067)" fill="#ed6826"/>
        <path id="Trazado_12024" data-name="Trazado 12024" d="M354.559,58.941c3.568,0,7.159.259,10.7-.065,4.421-.407,4.918,1.419,4.141,5.235-5.451,26.822-10.756,53.674-16.083,80.523-2.039,10.266.639,13.418,10.891,12.253,2.962-.338,3.125.378,2.692,2.85a102.37,102.37,0,0,0-1.782,13.381c-.2,4.777-2.192,7.054-6.967,7.537-5.634.564-11.269.976-16.845.069-14.175-2.306-22.519-12.748-20.391-27.427,2.444-16.858,6.248-33.52,9.521-50.255,2.52-12.879,5.3-25.709,7.613-38.623.776-4.333,2.442-6.134,6.946-5.554a75.613,75.613,0,0,0,9.567.078" transform="translate(41.077 7.529)" fill="#ed6826"/>
        <path id="Trazado_12025" data-name="Trazado 12025" d="M507.946,177.839a169.1,169.1,0,0,1-50.959,11.113c-14.9.811-51.416-2.755-56.506-2.834,2.569,1.579,26.407,8.66,37.012,11.844,10.837,3.256,21.823,5.445,33.248,5.01,19.483-.743,32.809-11.461,44.151-26.375-2.968-.97-4.943.483-6.946,1.241" transform="translate(51.314 22.586)" fill="#ed6826"/>
        <path id="Trazado_12026" data-name="Trazado 12026" d="M331.241,115.882c-4.752-20.073-22.137-31.828-42.523-28.958-6.84.962-12.627,4.2-19.212,8.559,3.141-7.683-.8-7.791-5.669-7.552a141.739,141.739,0,0,1-16.887-.035c-4.061-.288-5.515,1.218-6.263,5.046q-10.776,55.184-21.926,110.3c-.766,3.772-.354,4.974,3.689,4.826,7.313-.266,14.649-.268,21.961.007,3.62.137,4.795-1.206,5.427-4.633,2.231-12.085,4.827-24.1,7.446-36.945,10.6,12.057,23.763,12.94,37.217,10.095,26.379-5.58,43.116-33.753,36.736-60.7m-54.116,36.732c-6.994-.79-11.585-4.851-13.283-11.778-3.272-13.312,4.594-26.952,16.809-29.157,12.142-2.192,20.541,5.05,20.253,17.459-.358,15.382-10.118,25.017-23.78,23.475" transform="translate(27.99 11.083)" fill="#ed6826"/>
        <path id="Trazado_12027" data-name="Trazado 12027" d="M83.961,95.689c-7.432-6.025-16.262-8.25-25.589-9.118C33.194,84.23,10.659,97.833,3.006,120.077c-7.416,21.556-.842,41.787,16.74,51.443A51.809,51.809,0,0,0,45.965,177.7c15.447-.1,27.265-3.348,35.842-9.1,2.369-1.587,3.046-2.775,1.139-5.238a60.323,60.323,0,0,1-6.2-9.378c-2.674-5.249-4.964-6.836-11.231-3.475-9.583,5.143-20.181,5.717-29.985-.651-1.819-1.18-3.938-3.135-3.285-5.435.5-1.777,3.206-1.419,4.971-1.749q27.656-5.165,55.333-10.208c2.218-.4,4.542-.322,4.657-3.61.451-13.023-2.674-24.6-13.24-33.167M64.875,121.113c-9.788,1.658-19.528,3.6-29.291,5.4-2.678.5-4.4.478-3.125-3.293,3.065-9.066,10.357-14.647,21.064-14.642,4.844.153,10.234,1.7,13.48,7.5,1.467,2.624,1.669,4.386-2.129,5.029" transform="translate(0 11.059)" fill="#ed6826"/>
        <path id="Trazado_12028" data-name="Trazado 12028" d="M572.651,94.629a15.048,15.048,0,0,1-.854-1.248c-.759-1.241-2.829-1.759-4.376-2.42-.283-.12-.572-.227-.856-.343a91.577,91.577,0,0,0-23-6.081l-.008,0h.008a3.216,3.216,0,0,1-.334-.124c-.052-.019-.1-.043-.156-.06-2.194-1.032-4.206-8.676-4.207-8.676-3.393-17.186-5.655-32.5-14.848-47.45-1.069-1.738-11.319-5.045-12.409-6.769-4.969-7.852-3.384-10.153-9.507-15.12C496.486,1.773,493.293.73,478.9.02H466.49c-18.893-.4-34.325,5.429-51.4,13.314-3.281,1.383-17.417,10.377-22.477,15.6-12.307,12.013-19.224,25.5-23.007,40.764-3.58,14.44-1.141,28.744.736,43.079.274,2.094,1.128,4.087-.9,6.251-8.565,9.11-6.681,15.568,5.514,18.445,3.818.9,4.144,2.186,3.3,5.628-5.476,22.207,2.786,41.064,21.251,49.055,21.965,9.508,51.362,1.111,64.949-18.551,4.083-5.907,4.025-5.813,10.391-1.918a30.464,30.464,0,0,0,8.123,3.794c18.311,4.651,35.408,2.264,49.187-11.394,13.21-13.1,16.142-29.129,10.082-46.738-.47-1.367-1.588-2.7.909-3.415,6.381-1.829,12.737-3.8,19.544-5.854.378-.115,3.081-.888,4.209-2.016,9.025-5.641,7.924-7.695,5.758-11.436M383.935,98.9c-1.064,2.585-.238,5.293-.539,7.926-.118,1.046-.067,2.458-1.839,1.41-4.588-11.009-2.4-22.03-.261-33.12.923-4.769,2.544-6.841,7.432-4.039,4.488,2.573,4.432,4.775,4.432,4.775A72.836,72.836,0,0,0,383.935,98.9m63.3,48.5c-.015,15.11-9.736,26.214-23.664,27.177-11.958.827-19.877-5.769-21.014-17.676a34.747,34.747,0,0,1,.151-7.859c1.259-9.363,1.646-9.476,11.183-10.221,8.225-.641,16.436-1.537,24.623-2.561,7.276-.91,7.939-.564,8.7,6.64A43.05,43.05,0,0,1,447.235,147.4Zm49.725,11.394h0c-10.788-1.6-16.154-10.651-14.126-23.41.79-4.957,2.745-7.973,8.255-8.787,7.011-1.038,13.888-2.991,20.816-4.585,6.618-1.524,8.552-.329,9.862,6.443a39.671,39.671,0,0,1,.46,5.09c-.032,16.345-11.473,27.3-25.27,25.249m31.4-63a27.213,27.213,0,0,1-3.8,1.048c-10.971,2.472-11.322-1-11.845-11.95a77.742,77.742,0,0,0-19.625-48.085C482.656,24.921,453.23,9.92,454.783,8.918s27.094,4.353,38.047,13.808c1.195,1.031,1.822,1.065,2.991,2.113,12.68,11.367,24.152,24.845,28.543,42.085,1.917,6.425,3.045,18.834,6.429,19.962,4.83,1.61,2.371,7.065-2.433,8.908" transform="translate(46.661 0)" fill="#ed6826"/>
        <path id="Trazado_12029" data-name="Trazado 12029" d="M636.256,87.86l0-.016c-7.706-.02-15.42.191-23.117-.093-3.836-.141-5.154,1.31-5.809,4.938-2.063,11.447-4.391,22.85-6.839,34.223-1.241,5.778-3.635,11.071-8.585,14.779-5.37,4.021-13.851,4.964-18.632,1.873-5.645-3.653-4.71-9.248-4.243-14.653,2.034-10.45,4.048-20.905,6.116-31.35q.46-2.032.956-4.053a11.7,11.7,0,0,0,.414-2.915c.518-2.811-.892-2.776-2.458-2.74a16.891,16.891,0,0,0-2.974-.1c-.438.014-.893.05-1.362.1-6.184.03-12.37.131-18.544-.1-3.7-.141-5.5,1.31-6.136,4.938-.266,1.529-.768,4.807-1.006,4.922-.191,1.224-.318,2.077-.475,2.92-2.28,12.364-5.027,24.663-6.745,37.105-2.707,19.587,9.4,33.261,29.057,33.97a43.841,43.841,0,0,0,26.65-7.776c-.431,11.982-7.408,19.924-18.606,21.209-11.148,1.275-21.834-.482-31.37-6.557-3.513-2.237-4.893-1.4-6.674,1.768a110.681,110.681,0,0,1-8.472,13.293c-2.813,3.661-1.57,5.32,1.9,7.14,18.772,9.853,38.574,10.933,58.629,5.866,20.983-5.3,31.453-20.992,35.937-40.859,5.616-24.882,10.273-49.976,15.482-74.955.689-3.307-1.241-2.87-3.093-2.876" transform="translate(67.378 11.242)" fill="#ed6826"/>
      </g>
    </g>
  </g>
</svg>
