<svg xmlns="http://www.w3.org/2000/svg" width="92" height="66" viewBox="0 0 92 66">
  <g id="Grupo_471" data-name="Grupo 471" transform="translate(-408 -457)">
    <path id="Trazado_1005" data-name="Trazado 1005" d="M500,467.885v-1.39A9.722,9.722,0,0,0,490.087,457H417.913A9.722,9.722,0,0,0,408,466.495v47.01A9.722,9.722,0,0,0,417.913,523h72.175A9.721,9.721,0,0,0,500,513.505v-45.62Zm-82.087-5.722h72.174a4.435,4.435,0,0,1,4.522,4.332v0l-36.1,23.051a9.415,9.415,0,0,1-9.021,0l-36.1-23.052h0a4.435,4.435,0,0,1,4.522-4.332Zm72.175,55.673H417.913a4.435,4.435,0,0,1-4.522-4.332V472.7L446.5,493.844a14.973,14.973,0,0,0,15,0L494.609,472.7v40.8a4.435,4.435,0,0,1-4.521,4.332Zm0,0" transform="translate(0)" fill="#030303"/>
  </g>
</svg>
